{
    "asset": {
        "copyright": "(C)2021 84943",
        "generator": "maya2glTF v1.3.1 efac516101b7",
        "version": "2.0"
    },
    "scenes": [
        {
            "nodes": [
                0
            ]
        }
    ],
    "scene": 0,
    "nodes": [
        {
            "name": "cam_02",
            "children": [
                1
            ],
            "translation": [
                16.419824600219728,
                28.38058090209961,
                -30.23721694946289
            ],
            "rotation": [
                0.0,
                0.9386541843414308,
                0.0,
                -0.3448598086833954
            ],
            "scale": [
                0.800000011920929,
                0.800000011920929,
                0.800000011920929
            ]
        },
        {
            "name": "cam_02:PIV",
            "mesh": 0,
            "translation": [
                32.22775268554688,
                -34.689208984375,
                -22.185760498046876
            ]
        }
    ],
    "meshes": [
        {
            "name": "cam_02Shape",
            "extras": {
                "targetNames": []
            },
            "primitives": [
                {
                    "attributes": {
                        "NORMAL": 1,
                        "POSITION": 2,
                        "TANGENT": 3,
                        "TEXCOORD_0": 4
                    },
                    "indices": 0,
                    "mode": 4,
                    "material": 0
                }
            ]
        }
    ],
    "materials": [
        {
            "pbrMetallicRoughness": {}
        }
    ],
    "accessors": [
        {
            "name": "cam_02Shape#0/indices",
            "bufferView": 0,
            "byteOffset": 0,
            "componentType": 5123,
            "count": 228,
            "max": [
                183
            ],
            "min": [
                0
            ],
            "type": "SCALAR"
        },
        {
            "name": "cam_02Shape#0/vertices/NORMAL",
            "bufferView": 1,
            "byteOffset": 0,
            "componentType": 5126,
            "count": 184,
            "max": [
                0.7621434330940247,
                1.0,
                0.7621434330940247
            ],
            "min": [
                -0.7621434330940247,
                -1.0,
                -0.7621434330940247
            ],
            "type": "VEC3"
        },
        {
            "name": "cam_02Shape#0/vertices/POSITION",
            "bufferView": 1,
            "byteOffset": 2208,
            "componentType": 5126,
            "count": 184,
            "max": [
                -31.350048065185548,
                36.13769912719727,
                23.054317474365236
            ],
            "min": [
                -33.10544967651367,
                33.24071502685547,
                21.317201614379884
            ],
            "type": "VEC3"
        },
        {
            "name": "cam_02Shape#0/vertices/TANGENT",
            "bufferView": 2,
            "byteOffset": 0,
            "componentType": 5126,
            "count": 184,
            "max": [
                0.5981285572052002,
                1.0,
                0.7041303515434265,
                1.0
            ],
            "min": [
                -0.7621434330940247,
                -1.0,
                -0.7620468139648438,
                1.0
            ],
            "type": "VEC4"
        },
        {
            "name": "cam_02Shape#0/vertices/TEXCOORD_0",
            "bufferView": 3,
            "byteOffset": 0,
            "componentType": 5126,
            "count": 184,
            "max": [
                0.875,
                1.0
            ],
            "min": [
                0.125,
                0.0
            ],
            "type": "VEC2"
        }
    ],
    "bufferViews": [
        {
            "name": "cam_02/data/indices-2",
            "buffer": 0,
            "byteOffset": 8832,
            "byteLength": 456,
            "target": 34963
        },
        {
            "name": "cam_02/data/vertices-12",
            "buffer": 0,
            "byteOffset": 2944,
            "byteLength": 4416,
            "byteStride": 12,
            "target": 34962
        },
        {
            "name": "cam_02/data/vertices-16",
            "buffer": 0,
            "byteOffset": 0,
            "byteLength": 2944,
            "byteStride": 16,
            "target": 34962
        },
        {
            "name": "cam_02/data/vertices-8",
            "buffer": 0,
            "byteOffset": 7360,
            "byteLength": 1472,
            "byteStride": 8,
            "target": 34962
        }
    ],
    "buffers": [
        {
            "name": "cam_02/data",
            "byteLength": 9288,
            "uri": "cam_020.bin"
        }
    ]
}
